HIERARCHY
ROOT Hips
{
	OFFSET -0.001795 -0.223333 0.028219
	CHANNELS 6 Xposition Yposition Zposition Zrotation Yrotation Xrotation 
	JOINT LeftUpLeg
	{
		OFFSET 0.069520 -0.091406 -0.006815
		CHANNELS 3 Zrotation Yrotation Xrotation
		JOINT LeftLeg
		{
			OFFSET 0.034277 -0.375199 -0.004496
			CHANNELS 3 Zrotation Yrotation Xrotation
			JOINT LeftFoot
			{
				OFFSET -0.013596 -0.397961 -0.043693
				CHANNELS 3 Zrotation Yrotation Xrotation
				JOINT LeftToe
				{
					OFFSET 0.026358 -0.055791 0.119288
					CHANNELS 3 Zrotation Yrotation Xrotation
					End Site
					{
						OFFSET 0.000000 0.000000 0.000000
					}
				}
			}
		}
	}
	JOINT RightUpLeg
	{
		OFFSET -0.067670 -0.090522 -0.004320
		CHANNELS 3 Zrotation Yrotation Xrotation
		JOINT RightLeg
		{
			OFFSET -0.038290 -0.382569 -0.008850
			CHANNELS 3 Zrotation Yrotation Xrotation
			JOINT RightFoot
			{
				OFFSET 0.015774 -0.398415 -0.042312
				CHANNELS 3 Zrotation Yrotation Xrotation
				JOINT RightToe
				{
					OFFSET -0.025372 -0.048144 0.123348
					CHANNELS 3 Zrotation Yrotation Xrotation
					End Site
					{
						OFFSET 0.000000 0.000000 0.000000
					}
				}
			}
		}
	}
	JOINT Spine
	{
		OFFSET -0.002533 0.108963 -0.026696
		CHANNELS 3 Zrotation Yrotation Xrotation
		JOINT Spine1
		{
			OFFSET 0.005487 0.135180 0.001092
			CHANNELS 3 Zrotation Yrotation Xrotation
			JOINT Spine2
			{
				OFFSET 0.001457 0.052922 0.025425
				CHANNELS 3 Zrotation Yrotation Xrotation
				JOINT Neck
				{
					OFFSET -0.002778 0.213870 -0.042857
					CHANNELS 3 Zrotation Yrotation Xrotation
					JOINT Head
					{
						OFFSET 0.005152 0.064970 0.051349
						CHANNELS 3 Zrotation Yrotation Xrotation
						End Site
						{
							OFFSET 0.000000 0.000000 0.000000
						}
					}
				}
				JOINT LeftShoulder
				{
					OFFSET 0.078845 0.121749 -0.034090
					CHANNELS 3 Zrotation Yrotation Xrotation
					JOINT LeftArm
					{
						OFFSET 0.090977 0.030469 -0.008868
						CHANNELS 3 Zrotation Yrotation Xrotation
						JOINT LeftForeArm
						{
							OFFSET 0.259612 -0.012772 -0.027456
							CHANNELS 3 Zrotation Yrotation Xrotation
							JOINT LeftHand
							{
								OFFSET 0.249234 0.008986 -0.001171
								CHANNELS 3 Zrotation Yrotation Xrotation
								End Site
								{
									OFFSET 0.000000 0.000000 0.000000
								}
							}
						}
					}
				}
				JOINT RightShoulder
				{
					OFFSET -0.081759 0.118833 -0.038615
					CHANNELS 3 Zrotation Yrotation Xrotation
					JOINT RightArm
					{
						OFFSET -0.096012 0.032551 -0.009143
						CHANNELS 3 Zrotation Yrotation Xrotation
						JOINT RightForeArm
						{
							OFFSET -0.253742 -0.013329 -0.021401
							CHANNELS 3 Zrotation Yrotation Xrotation
							JOINT RightHand
							{
								OFFSET -0.255298 0.007772 -0.005559
								CHANNELS 3 Zrotation Yrotation Xrotation
								End Site
								{
									OFFSET 0.000000 0.000000 0.000000
								}
							}
						}
					}
				}
			}
		}
	}
}
MOTION
Frames: 9
Frame Time: 0.050000
0.000000 0.946635 0.000000 -0.609153 1.292495 4.518017 2.510429 -0.048478 0.246854 0.735424 0.083119 -3.982512 -2.144321 -0.523800 7.881274 0.000000 0.000000 0.000000 -0.829320 0.214064 -1.987309 -1.726692 0.198246 0.266077 0.493232 -3.443017 10.851667 0.000000 0.000000 0.000000 4.439843 0.310106 -5.323476 -2.314226 1.118750 -3.968772 -4.633619 2.812630 9.266251 6.180047 -3.242804 -9.988865 0.000000 0.000000 0.000000 -13.092048 -2.584702 -0.646256 -58.387517 -2.978203 -6.047321 -10.145460 -21.962297 2.653403 0.000000 0.000000 0.000000 11.779013 -6.599964 -3.475423 67.516149 1.189854 -5.895645 10.255193 26.625418 3.542597 0.000000 0.000000 0.000000 
0.000635 0.945900 0.001228 -0.749827 1.014545 5.088706 2.941175 -0.045487 0.529857 0.111560 0.174726 -5.370541 -2.088023 -0.364066 8.082003 0.000000 0.000000 0.000000 -1.035439 0.265284 -2.493256 -1.224215 0.135847 0.129361 0.602016 -3.220759 10.739839 0.000000 0.000000 0.000000 5.542469 0.387679 -6.041461 -2.865163 1.350908 -3.012342 -5.727250 3.436843 8.218842 6.009082 -3.041637 -9.976819 0.000000 0.000000 0.000000 -13.466391 -2.580951 -0.842902 -56.985996 -2.733064 -5.876068 -11.078826 -22.089289 2.797235 0.000000 0.000000 0.000000 11.493326 -8.027278 -4.059508 69.036494 -0.420521 -6.722539 10.399748 26.669456 3.609928 0.000000 0.000000 0.000000 
0.001033 0.945697 0.002025 -0.254008 1.221793 5.015213 2.853061 -0.043004 0.525955 -0.692563 0.215864 -5.171970 -2.261156 -0.625782 8.154316 0.000000 0.000000 0.000000 -1.149639 0.235499 -2.155764 -1.989477 0.202620 -0.146718 0.431895 -3.459543 10.532884 0.000000 0.000000 0.000000 5.099650 0.393745 -6.256024 -2.687114 1.276368 -3.860375 -6.103204 2.915907 9.063959 4.981739 -2.419658 -9.641007 0.000000 0.000000 0.000000 -13.052525 -2.621462 -0.679126 -57.392642 -2.702085 -6.041304 -10.936316 -21.242208 2.692885 0.000000 0.000000 0.000000 12.928336 -7.345744 -3.922651 67.344126 -0.345708 -6.755709 9.852488 25.928545 3.357566 0.000000 0.000000 0.000000 
0.001188 0.946140 0.002965 -0.251385 1.423215 5.218032 3.053308 -0.053746 0.505587 -1.022065 0.241967 -5.477894 -2.427415 -0.785921 8.422926 0.000000 0.000000 0.000000 -1.137154 0.235858 -2.153878 -1.986141 0.188601 -0.398379 0.385210 -3.610694 10.778828 0.000000 0.000000 0.000000 5.307833 0.433755 -6.722626 -2.914259 1.375492 -3.282299 -6.332497 2.732083 8.228152 4.740705 -2.383246 -8.694706 0.000000 0.000000 0.000000 -12.510136 -2.242898 -0.805921 -57.943002 -2.608984 -6.084325 -10.430014 -20.833291 2.537747 0.000000 0.000000 0.000000 11.847275 -7.908157 -4.091744 68.076422 -1.028860 -7.063415 10.365408 25.252791 3.344901 0.000000 0.000000 0.000000 
0.001193 0.946547 0.003742 -0.051542 1.612523 5.182902 2.842623 -0.022669 0.886895 -0.993125 0.253223 -6.040760 -2.629447 -0.964971 8.779331 0.000000 0.000000 0.000000 -1.246446 0.193560 -1.668685 -2.139090 0.167064 -1.052013 0.350246 -3.729470 10.996298 0.000000 0.000000 0.000000 5.047234 0.415546 -6.614814 -2.686673 1.277750 -3.297474 -6.583319 2.879885 7.943465 4.434642 -2.149807 -8.605909 0.000000 0.000000 0.000000 -12.379476 -2.549214 -0.709282 -57.539813 -2.940071 -5.854124 -10.733341 -19.924677 2.460857 0.000000 0.000000 0.000000 11.991548 -8.309654 -4.265701 67.549233 -1.427643 -7.181400 10.528725 24.505954 3.273391 0.000000 0.000000 0.000000 
0.001104 0.946781 0.004339 -0.045165 1.632532 5.288659 2.783925 -0.023465 0.855271 -0.885351 0.249789 -6.129688 -2.656291 -0.964506 8.880404 0.000000 0.000000 0.000000 -1.099667 0.182675 -1.575406 -2.397659 0.173660 -1.356741 0.365286 -3.746739 11.142607 0.000000 0.000000 0.000000 5.133659 0.434377 -6.831857 -2.750013 1.304454 -3.130949 -6.584279 2.804366 7.784429 4.484805 -2.233847 -8.309722 0.000000 0.000000 0.000000 -12.517076 -2.705980 -0.650926 -57.047832 -3.247555 -5.619963 -10.649506 -19.332793 2.372294 0.000000 0.000000 0.000000 11.891028 -8.133414 -4.179456 67.509104 -1.510222 -7.212682 10.099899 24.037765 3.105077 0.000000 0.000000 0.000000 
0.001058 0.946683 0.004670 -0.001408 1.628754 5.259325 2.749067 -0.005729 1.102035 -0.903602 0.259019 -6.466783 -2.690642 -0.985151 8.969105 0.000000 0.000000 0.000000 -0.941369 0.145868 -1.213095 -2.764791 0.173101 -1.906789 0.386376 -3.729505 11.209842 0.000000 0.000000 0.000000 5.068656 0.435630 -6.864885 -2.687334 1.276735 -2.977145 -6.585590 2.642109 7.571832 4.624580 -2.303223 -8.561500 0.000000 0.000000 0.000000 -12.715390 -2.735659 -0.641935 -56.656421 -3.264944 -5.533378 -10.726931 -18.760705 2.317122 0.000000 0.000000 0.000000 11.953020 -8.035588 -4.162583 67.501970 -1.674256 -7.308181 9.874266 23.561960 2.974986 0.000000 0.000000 0.000000 
0.001090 0.946463 0.004810 -0.141689 1.407162 5.435872 2.702514 -0.021292 0.839867 -0.604789 0.240406 -6.277597 -2.509012 -0.770553 8.780791 0.000000 0.000000 0.000000 -0.742467 0.153996 -1.343165 -2.903916 0.173486 -2.069685 0.490419 -3.557620 11.217278 0.000000 0.000000 0.000000 5.164798 0.455030 -7.074561 -2.604385 1.237383 -2.771336 -6.515027 2.753262 7.144442 5.302011 -2.842129 -8.202570 0.000000 0.000000 0.000000 -12.852334 -2.774621 -0.649878 -56.347423 -3.283338 -5.441619 -10.725475 -18.306461 2.257093 0.000000 0.000000 0.000000 11.976413 -8.076885 -4.192789 67.515283 -1.459825 -7.145194 9.526774 22.673155 2.769162 0.000000 0.000000 0.000000 
0.001156 0.946328 0.004843 -0.144612 1.203333 5.555944 2.731712 -0.024954 0.795584 -0.706196 0.248916 -6.377425 -2.417037 -0.622818 8.793679 0.000000 0.000000 0.000000 -0.764012 0.148386 -1.275962 -2.919270 0.147130 -2.472781 0.602575 -3.381721 11.266380 0.000000 0.000000 0.000000 5.224099 0.468627 -7.213902 -2.509019 1.193904 -2.875291 -6.430635 2.837234 7.049926 5.719490 -3.115196 -8.367663 0.000000 0.000000 0.000000 -12.978876 -2.801683 -0.648873 -56.369502 -3.606578 -5.278335 -10.475977 -17.719734 2.147186 0.000000 0.000000 0.000000 12.051220 -7.936818 -4.140612 67.455345 -1.250634 -7.018780 9.551858 22.120738 2.689615 0.000000 0.000000 0.000000 
